<svg width="24" height="24" viewBox="0 0 24 24" fill="none" xmlns="http://www.w3.org/2000/svg">
<path fill-rule="evenodd" clip-rule="evenodd" d="M7.20995 7.20024L7.41155 9.69144C7.41264 9.85645 7.46276 10.0174 7.55555 10.1538C7.58754 10.1839 7.6258 10.2066 7.66757 10.2201C7.70934 10.2337 7.75359 10.2378 7.79715 10.2322H8.56995C8.61597 10.2375 8.66258 10.2315 8.70577 10.2148C8.74896 10.1981 8.78746 10.1711 8.81795 10.1362C8.88733 10.0235 8.92133 9.89252 8.91555 9.76024V7.01464C8.9131 6.99981 8.9131 6.98468 8.91555 6.96984C8.91219 6.94046 8.9026 6.91214 8.88743 6.88675C8.87225 6.86137 8.85184 6.83951 8.82755 6.82264C8.72881 6.77244 8.61783 6.75135 8.50755 6.76184C8.16995 6.76184 7.82275 6.77144 7.48835 6.76184C7.44479 6.7586 7.40102 6.7643 7.35974 6.77861C7.31847 6.79292 7.28056 6.81553 7.24835 6.84504C7.21905 6.8965 7.20029 6.95328 7.19315 7.01206C7.186 7.07085 7.19063 7.13047 7.20675 7.18744V7.20024H7.20995ZM18.9124 14.3378L20.4804 15.5746C20.5802 15.6534 20.6447 15.7686 20.6597 15.8949C20.6747 16.0212 20.639 16.1483 20.5604 16.2482L19.8756 17.1202L17.554 15.2866L18.2404 14.4178C18.3191 14.318 18.4343 14.2535 18.5606 14.2385C18.6869 14.2235 18.814 14.2592 18.914 14.3378H18.9124ZM12.6932 20.8562C12.7642 20.8523 12.8353 20.8629 12.9021 20.8874C12.9689 20.9119 13.03 20.9497 13.0817 20.9986C13.1333 21.0475 13.1745 21.1064 13.2026 21.1718C13.2308 21.2371 13.2453 21.3075 13.2453 21.3786C13.2453 21.4498 13.2308 21.5202 13.2026 21.5855C13.1745 21.6509 13.1333 21.7098 13.0817 21.7587C13.03 21.8076 12.9689 21.8454 12.9021 21.8699C12.8353 21.8944 12.7642 21.905 12.6932 21.901H4.57635C4.25398 21.9006 3.94493 21.7724 3.71698 21.5444C3.48902 21.3165 3.36077 21.0074 3.36035 20.685V3.45624C3.36077 3.13387 3.48902 2.82482 3.71698 2.59687C3.94493 2.36892 4.25398 2.24067 4.57635 2.24024H19.098C19.2581 2.23961 19.4168 2.27059 19.565 2.33139C19.7132 2.3922 19.8479 2.48165 19.9615 2.5946C20.075 2.70756 20.1652 2.84181 20.2268 2.98967C20.2883 3.13752 20.3201 3.29608 20.3204 3.45624V12.2562C20.3204 12.8258 20.0756 12.9138 19.8228 12.9314C19.57 12.949 19.2756 12.8626 19.2756 12.2562V3.45624C19.2759 3.43377 19.2716 3.41146 19.2627 3.39079C19.2539 3.37011 19.2408 3.35153 19.2244 3.33624C19.1927 3.30401 19.1495 3.2856 19.1044 3.28504H4.57635C4.53097 3.28543 4.48746 3.30318 4.45475 3.33464C4.42356 3.36753 4.40586 3.41093 4.40515 3.45624V20.6834C4.40478 20.7059 4.40914 20.7282 4.41796 20.7489C4.42679 20.7696 4.43987 20.7882 4.45635 20.8034C4.47223 20.8196 4.49115 20.8324 4.51202 20.8412C4.53289 20.85 4.5553 20.8546 4.57795 20.8546L12.6932 20.8562ZM7.13315 17.9026C6.99793 17.8952 6.87071 17.8362 6.77762 17.7379C6.68453 17.6395 6.63265 17.5093 6.63265 17.3738C6.63265 17.2384 6.68453 17.1081 6.77762 17.0098C6.87071 16.9114 6.99793 16.8525 7.13315 16.845H14.5956L13.9204 17.7154C13.8709 17.774 13.8265 17.8366 13.7876 17.9026H7.13315ZM7.33635 14.997C7.2028 14.9897 7.07715 14.9314 6.98523 14.8342C6.8933 14.7371 6.84207 14.6084 6.84207 14.4746C6.84207 14.3409 6.8933 14.2122 6.98523 14.1151C7.07715 14.0179 7.2028 13.9596 7.33635 13.9522H15.8916C16.03 13.9527 16.1627 14.008 16.2605 14.1061C16.3582 14.2041 16.4132 14.337 16.4132 14.4754C16.4139 14.4856 16.4139 14.4957 16.4132 14.5058C16.3769 14.5568 16.3443 14.6103 16.3156 14.6658C16.241 14.7296 16.1739 14.8015 16.1156 14.8802L16.042 14.973C15.9932 14.9878 15.9425 14.9953 15.8916 14.9954L7.33635 14.997ZM17.298 20.437C16.7556 20.677 16.3204 20.7954 15.7796 21.0354C14.6276 21.4322 14.6596 21.6994 14.7556 20.5554L14.9796 18.6066L17.21 15.7266L19.5316 17.557L17.3012 20.437H17.298ZM15.378 18.9218L16.9028 20.125L15.8356 20.605C15.0004 20.9746 15.026 21.1522 15.162 20.285L15.378 18.925V18.9218ZM14.9412 6.67544C14.9538 6.6604 14.9677 6.64649 14.9828 6.63384C15.1221 6.52003 15.2992 6.4629 15.4788 6.47384H16.418C16.6205 6.45925 16.8223 6.51152 16.9924 6.62264C17.0721 6.68769 17.1322 6.77355 17.1661 6.87071C17.2 6.96787 17.2063 7.07252 17.1844 7.17304L16.9284 9.81784C16.9256 10.0168 16.8582 10.2094 16.7364 10.3666C16.6745 10.4358 16.5972 10.4894 16.5108 10.5231C16.4243 10.5567 16.3311 10.5695 16.2388 10.5602H15.4148C15.2802 10.5703 15.1467 10.5298 15.0404 10.4466C14.9744 10.3917 14.9201 10.3243 14.8804 10.2482H14.5604C14.591 10.3673 14.5877 10.4926 14.5508 10.6098C14.5072 10.74 14.4266 10.8545 14.3188 10.9394C14.2132 11.0217 14.089 11.0767 13.9572 11.0994C13.8364 11.12 13.7124 11.109 13.5972 11.0674C13.4798 11.1915 13.3319 11.2825 13.1684 11.3314C13.0185 11.372 12.86 11.3682 12.7124 11.3202C12.5824 11.4661 12.411 11.5688 12.2212 11.6146C12.0238 11.653 11.8194 11.6261 11.6388 11.5378C11.5804 11.5811 11.517 11.6171 11.45 11.645C11.3456 11.6884 11.2333 11.7091 11.1204 11.7058C10.8988 11.7098 10.6838 11.6311 10.5172 11.485C10.3823 11.3515 10.2699 11.1969 10.1844 11.0274L9.62595 10.0514H9.24515C9.22151 10.1622 9.17401 10.2665 9.10595 10.357C9.04184 10.4384 8.95867 10.5027 8.86379 10.5443C8.7689 10.5859 8.66523 10.6035 8.56195 10.5954H7.79875C7.70402 10.6031 7.60878 10.5895 7.51994 10.5558C7.4311 10.522 7.3509 10.4689 7.28515 10.4002C7.13753 10.2079 7.05463 9.9738 7.04835 9.73144V9.71544L6.84675 7.23064C6.82122 7.12425 6.81886 7.0136 6.83984 6.90622C6.86083 6.79883 6.90465 6.69721 6.96835 6.60824C7.03285 6.53988 7.11113 6.48598 7.19802 6.45013C7.2849 6.41427 7.37841 6.39727 7.47235 6.40024H8.50595C8.68521 6.38907 8.8638 6.4308 9.01955 6.52024C9.12238 6.58484 9.20023 6.68243 9.24035 6.79704H10.0276C10.2186 6.66008 10.4289 6.55224 10.6516 6.47704C10.8797 6.40166 11.1213 6.37548 11.3604 6.40024L11.6292 6.08024L11.6452 6.06424C11.7267 5.98595 11.8195 5.92017 11.9204 5.86904C12.0251 5.81334 12.1363 5.77088 12.2516 5.74264C12.435 5.69639 12.624 5.6754 12.8132 5.68024C13.0146 5.68376 13.2149 5.71115 13.41 5.76184C13.7391 5.87086 14.0467 6.03655 14.3188 6.25144L14.5236 6.39224L14.9316 6.66584L14.9412 6.67544ZM11.3812 11.2706L11.0052 10.5602C10.9823 10.5175 10.9772 10.4676 10.991 10.4211C11.0048 10.3747 11.0363 10.3356 11.0788 10.3122C11.1217 10.29 11.1717 10.2853 11.218 10.2994C11.2644 10.3134 11.3034 10.345 11.3268 10.3874L11.7508 11.1874C11.87 11.2538 12.0082 11.2775 12.1428 11.2546C12.2541 11.2267 12.3549 11.1666 12.4324 11.0818L11.8292 10.1362C11.8033 10.0953 11.7947 10.0457 11.8054 9.99848C11.816 9.95122 11.845 9.91013 11.886 9.88424C11.9269 9.85836 11.9765 9.8498 12.0237 9.86045C12.071 9.87111 12.1121 9.9001 12.138 9.94104L12.778 10.957C12.8685 10.9953 12.9692 11.0026 13.0644 10.9778C13.1614 10.9472 13.249 10.8921 13.3188 10.8178L12.7428 9.73144C12.7291 9.71031 12.72 9.68659 12.7159 9.66175C12.7119 9.63692 12.713 9.61152 12.7193 9.58715C12.7255 9.56278 12.7367 9.53996 12.7522 9.52014C12.7677 9.50032 12.7871 9.48391 12.8093 9.47196C12.8314 9.46 12.8558 9.45276 12.8809 9.45068C12.9059 9.4486 12.9312 9.45173 12.955 9.45987C12.9788 9.46801 13.0006 9.48099 13.0192 9.49799C13.0377 9.51498 13.0526 9.53564 13.0628 9.55864L13.6708 10.7026C13.7383 10.7371 13.8154 10.7483 13.89 10.7346C13.9598 10.7236 14.0254 10.6943 14.0804 10.6498C14.1334 10.6095 14.1726 10.5535 14.1924 10.4898C14.2154 10.4135 14.2091 10.3314 14.1748 10.2594C14.1668 10.2423 14.1619 10.2239 14.1604 10.205C14.1334 10.1858 14.1119 10.1599 14.098 10.1298L12.7412 7.68184C12.6116 7.46264 12.498 7.45464 12.3908 7.52184C12.2905 7.58863 12.1968 7.6647 12.1108 7.74904C12.0548 7.80184 11.9972 7.85304 11.9412 7.89944L11.6996 8.09944C11.5402 8.22803 11.3466 8.30702 11.1428 8.32664C11.0217 8.33693 10.8999 8.32054 10.786 8.27864C10.6716 8.2366 10.5705 8.16479 10.4932 8.07064C10.4049 7.96044 10.3524 7.8259 10.3428 7.68504C10.3406 7.65828 10.3444 7.63137 10.3538 7.60622C10.3632 7.58107 10.378 7.55827 10.3972 7.53944L11.0548 6.75704C10.9521 6.76297 10.8506 6.78123 10.7524 6.81144C10.5506 6.88197 10.3603 6.9817 10.1876 7.10744C10.1556 7.13372 10.1153 7.14788 10.074 7.14744H9.28035V9.68504H9.72995C9.76308 9.68564 9.79544 9.69517 9.8236 9.71263C9.85176 9.73009 9.87469 9.75484 9.88995 9.78424L10.498 10.845C10.5649 10.9799 10.6517 11.104 10.7556 11.213C10.8587 11.2999 10.9904 11.3455 11.1252 11.341C11.1871 11.3431 11.2488 11.3316 11.306 11.3074C11.3309 11.2971 11.355 11.2848 11.378 11.2706H11.3812ZM14.7588 9.88184L14.7844 7.00184L14.33 6.69944L14.1188 6.56024C13.8791 6.36979 13.6085 6.22203 13.3188 6.12344C13.1525 6.08025 12.9817 6.05662 12.81 6.05304C12.6532 6.04851 12.4966 6.0652 12.3444 6.10264C12.2565 6.12509 12.1717 6.15785 12.0916 6.20024C12.0224 6.23576 11.9584 6.28043 11.9012 6.33304L11.6004 6.68984C11.589 6.7111 11.5731 6.72965 11.554 6.74424L10.7204 7.72824C10.7315 7.77802 10.7554 7.82406 10.7896 7.8619C10.8238 7.89975 10.8672 7.92811 10.9156 7.94424C10.9792 7.96646 11.0469 7.97465 11.114 7.96824C11.2458 7.95454 11.3709 7.90285 11.474 7.81944L11.7092 7.62424C11.7636 7.58104 11.8148 7.53304 11.8692 7.48664C11.973 7.38509 12.0866 7.29398 12.2084 7.21464C12.498 7.04024 12.7828 7.04024 13.0628 7.50424L14.3812 9.88184H14.7588ZM8.25955 9.12024C8.30575 9.12024 8.35092 9.13395 8.38933 9.15961C8.42775 9.18528 8.45769 9.22177 8.47537 9.26445C8.49305 9.30713 8.49768 9.3541 8.48866 9.39942C8.47965 9.44473 8.4574 9.48636 8.42473 9.51902C8.39206 9.55169 8.35044 9.57394 8.30512 9.58296C8.25981 9.59197 8.21284 9.58734 8.17016 9.56966C8.12747 9.55198 8.09099 9.52204 8.06532 9.48363C8.03965 9.44521 8.02595 9.40005 8.02595 9.35384C8.02574 9.32311 8.03164 9.29264 8.0433 9.2642C8.05496 9.23576 8.07216 9.20992 8.0939 9.18819C8.11563 9.16646 8.14147 9.14926 8.16991 9.13759C8.19834 9.12593 8.22882 9.12003 8.25955 9.12024ZM15.7796 9.12024C15.8258 9.11993 15.8711 9.13336 15.9098 9.15883C15.9484 9.18431 15.9786 9.22068 15.9965 9.26334C16.0144 9.30599 16.0193 9.35301 16.0105 9.39843C16.0016 9.44385 15.9795 9.48562 15.9469 9.51845C15.9143 9.55128 15.8727 9.57369 15.8273 9.58283C15.782 9.59198 15.7349 9.58744 15.6921 9.56981C15.6494 9.55218 15.6128 9.52224 15.587 9.48379C15.5613 9.44534 15.5476 9.40011 15.5476 9.35384C15.5471 9.29286 15.5707 9.23416 15.6132 9.19044C15.6558 9.14672 15.7138 9.1215 15.7748 9.12024H15.7796Z" fill="black"/>
</svg>
