<svg width="138" height="37" viewBox="0 0 138 37" fill="none" xmlns="http://www.w3.org/2000/svg">
<path d="M23.3949 12.4943C23.2017 11.7784 22.9176 11.1477 22.5426 10.6023C22.1676 10.0455 21.7074 9.57386 21.1619 9.1875C20.6165 8.80114 19.9915 8.51136 19.2869 8.31818C18.5824 8.11364 17.8097 8.01136 16.9688 8.01136C15.2756 8.01136 13.8097 8.42045 12.571 9.23864C11.3438 10.0568 10.3949 11.25 9.72443 12.8182C9.05398 14.375 8.71875 16.267 8.71875 18.4943C8.71875 20.733 9.04261 22.642 9.69034 24.2216C10.3381 25.8011 11.2756 27.0057 12.5028 27.8352C13.7301 28.6648 15.2188 29.0795 16.9688 29.0795C18.5142 29.0795 19.821 28.8295 20.8892 28.3295C21.9688 27.8182 22.7869 27.0966 23.3438 26.1648C23.9006 25.233 24.179 24.1364 24.179 22.875L25.7472 23.0625H17.2585V16.9091H32.3097V21.5284C32.3097 24.6534 31.6449 27.3295 30.3153 29.5568C28.9972 31.7841 27.179 33.4943 24.8608 34.6875C22.554 35.8807 19.9006 36.4773 16.9006 36.4773C13.571 36.4773 10.6449 35.7557 8.12216 34.3125C5.59943 32.8693 3.63352 30.8125 2.22443 28.142C0.815341 25.4602 0.110795 22.2784 0.110795 18.5966C0.110795 15.733 0.536932 13.1932 1.3892 10.9773C2.24148 8.75 3.42898 6.86364 4.9517 5.31818C6.4858 3.77273 8.25852 2.60227 10.2699 1.80682C12.2926 1.01136 14.4688 0.613635 16.7983 0.613635C18.821 0.613635 20.7017 0.903408 22.4403 1.48295C24.1903 2.0625 25.7358 2.88068 27.0767 3.9375C28.429 4.99432 29.5256 6.25 30.3665 7.70455C31.2074 9.15909 31.7301 10.7557 31.9347 12.4943H23.3949ZM34.044 1.09091H43.4702L50.8509 15.6989H51.1577L58.5384 1.09091H67.9645L55.1974 24.3409V36H46.8111V24.3409L34.044 1.09091ZM92.1136 12.4943C91.9205 11.7784 91.6364 11.1477 91.2614 10.6023C90.8864 10.0455 90.4261 9.57386 89.8807 9.1875C89.3352 8.80114 88.7102 8.51136 88.0057 8.31818C87.3011 8.11364 86.5284 8.01136 85.6875 8.01136C83.9943 8.01136 82.5284 8.42045 81.2898 9.23864C80.0625 10.0568 79.1136 11.25 78.4432 12.8182C77.7727 14.375 77.4375 16.267 77.4375 18.4943C77.4375 20.733 77.7614 22.642 78.4091 24.2216C79.0568 25.8011 79.9943 27.0057 81.2216 27.8352C82.4489 28.6648 83.9375 29.0795 85.6875 29.0795C87.233 29.0795 88.5398 28.8295 89.608 28.3295C90.6875 27.8182 91.5057 27.0966 92.0625 26.1648C92.6193 25.233 92.8977 24.1364 92.8977 22.875L94.4659 23.0625H85.9773V16.9091H101.028V21.5284C101.028 24.6534 100.364 27.3295 99.0341 29.5568C97.7159 31.7841 95.8977 33.4943 93.5795 34.6875C91.2727 35.8807 88.6193 36.4773 85.6193 36.4773C82.2898 36.4773 79.3636 35.7557 76.8409 34.3125C74.3182 32.8693 72.3523 30.8125 70.9432 28.142C69.5341 25.4602 68.8295 22.2784 68.8295 18.5966C68.8295 15.733 69.2557 13.1932 70.108 10.9773C70.9602 8.75 72.1477 6.86364 73.6705 5.31818C75.2045 3.77273 76.9773 2.60227 78.9886 1.80682C81.0114 1.01136 83.1875 0.613635 85.517 0.613635C87.5398 0.613635 89.4205 0.903408 91.1591 1.48295C92.9091 2.0625 94.4545 2.88068 95.7955 3.9375C97.1477 4.99432 98.2443 6.25 99.0852 7.70455C99.9261 9.15909 100.449 10.7557 100.653 12.4943H92.1136ZM128.911 12.4943C128.717 11.7784 128.433 11.1477 128.058 10.6023C127.683 10.0455 127.223 9.57386 126.678 9.1875C126.132 8.80114 125.507 8.51136 124.803 8.31818C124.098 8.11364 123.325 8.01136 122.484 8.01136C120.791 8.01136 119.325 8.42045 118.087 9.23864C116.859 10.0568 115.911 11.25 115.24 12.8182C114.57 14.375 114.234 16.267 114.234 18.4943C114.234 20.733 114.558 22.642 115.206 24.2216C115.854 25.8011 116.791 27.0057 118.018 27.8352C119.246 28.6648 120.734 29.0795 122.484 29.0795C124.03 29.0795 125.337 28.8295 126.405 28.3295C127.484 27.8182 128.303 27.0966 128.859 26.1648C129.416 25.233 129.695 24.1364 129.695 22.875L131.263 23.0625H122.774V16.9091H137.825V21.5284C137.825 24.6534 137.161 27.3295 135.831 29.5568C134.513 31.7841 132.695 33.4943 130.376 34.6875C128.07 35.8807 125.416 36.4773 122.416 36.4773C119.087 36.4773 116.161 35.7557 113.638 34.3125C111.115 32.8693 109.149 30.8125 107.74 28.142C106.331 25.4602 105.626 22.2784 105.626 18.5966C105.626 15.733 106.053 13.1932 106.905 10.9773C107.757 8.75 108.945 6.86364 110.467 5.31818C112.001 3.77273 113.774 2.60227 115.786 1.80682C117.808 1.01136 119.984 0.613635 122.314 0.613635C124.337 0.613635 126.217 0.903408 127.956 1.48295C129.706 2.0625 131.251 2.88068 132.592 3.9375C133.945 4.99432 135.041 6.25 135.882 7.70455C136.723 9.15909 137.246 10.7557 137.45 12.4943H128.911Z" fill="#DA9A3D"/>
</svg>
