<svg width="87" height="87" viewBox="0 0 87 87" fill="none" xmlns="http://www.w3.org/2000/svg">
<path d="M61.625 77.0312H25.375C12.1437 77.0312 4.53125 69.4188 4.53125 56.1875V30.8125C4.53125 17.5812 12.1437 9.96875 25.375 9.96875H50.75C52.2363 9.96875 53.4688 11.2012 53.4688 12.6875C53.4688 14.1737 52.2363 15.4062 50.75 15.4062H25.375C15.0075 15.4062 9.96875 20.445 9.96875 30.8125V56.1875C9.96875 66.555 15.0075 71.5938 25.375 71.5938H61.625C71.9925 71.5938 77.0312 66.555 77.0312 56.1875V38.0625C77.0312 36.5763 78.2637 35.3438 79.75 35.3438C81.2363 35.3438 82.4688 36.5763 82.4688 38.0625V56.1875C82.4688 69.4188 74.8562 77.0312 61.625 77.0312Z" fill="#00AABA"/>
<path d="M43.4991 46.6538C40.4541 46.6538 37.3728 45.7113 35.0166 43.7901L23.6703 34.7276C22.5103 33.7851 22.2928 32.0813 23.2353 30.9213C24.1778 29.7613 25.8815 29.5438 27.0415 30.4863L38.3878 39.5488C41.1428 41.7601 45.819 41.7601 48.5741 39.5488L52.8515 36.1413C54.0115 35.1988 55.7516 35.3801 56.6578 36.5763C57.6003 37.7363 57.4191 39.4763 56.2229 40.3826L51.9453 43.7901C49.6253 45.7113 46.5441 46.6538 43.4991 46.6538Z" fill="#00AABA"/>
<path d="M70.6875 31.7188C64.1988 31.7188 58.9062 26.4263 58.9062 19.9375C58.9062 13.4488 64.1988 8.15625 70.6875 8.15625C77.1763 8.15625 82.4688 13.4488 82.4688 19.9375C82.4688 26.4263 77.1763 31.7188 70.6875 31.7188ZM70.6875 13.5938C67.2075 13.5938 64.3438 16.4575 64.3438 19.9375C64.3438 23.4175 67.2075 26.2812 70.6875 26.2812C74.1675 26.2812 77.0312 23.4175 77.0312 19.9375C77.0312 16.4575 74.1675 13.5938 70.6875 13.5938Z" fill="#00AABA"/>
</svg>
